<svg width="60" height="60" viewBox="0 0 60 60" fill="none" xmlns="http://www.w3.org/2000/svg">
<path d="M48.75 7.5H11.25C9.17893 7.5 7.5 9.17893 7.5 11.25V48.75C7.5 50.8211 9.17893 52.5 11.25 52.5H48.75C50.8211 52.5 52.5 50.8211 52.5 48.75V11.25C52.5 9.17893 50.8211 7.5 48.75 7.5Z" stroke="#F06900" stroke-width="3.33333" stroke-linejoin="round"/>
<path d="M30 18.75H26.25C25.2554 18.75 24.3016 19.1451 23.5983 19.8483C22.8951 20.5516 22.5 21.5054 22.5 22.5C22.5 23.4946 22.8951 24.4484 23.5983 25.1517C24.3016 25.8549 25.2554 26.25 26.25 26.25M30 18.75V26.25M30 18.75H33.75C34.7446 18.75 35.6984 19.1451 36.4017 19.8483C37.1049 20.5516 37.5 21.5054 37.5 22.5C37.5 23.4946 37.1049 24.4484 36.4017 25.1517C35.6984 25.8549 34.7446 26.25 33.75 26.25H30M30 26.25H26.25M30 26.25V33.75M26.25 26.25C25.2554 26.25 24.3016 26.6451 23.5983 27.3483C22.8951 28.0516 22.5 29.0054 22.5 30C22.5 30.9946 22.8951 31.9484 23.5983 32.6517C24.3016 33.3549 25.2554 33.75 26.25 33.75M30 33.75H26.25M30 33.75V37.5C30 38.4946 29.6049 39.4484 28.9017 40.1516C28.1984 40.8549 27.2446 41.25 26.25 41.25C25.2554 41.25 24.3016 40.8549 23.5983 40.1516C22.8951 39.4484 22.5 38.4946 22.5 37.5C22.5 36.5054 22.8951 35.5516 23.5983 34.8483C24.3016 34.1451 25.2554 33.75 26.25 33.75" stroke="#F06900" stroke-width="3.33333" stroke-linejoin="round"/>
<path d="M30 30C30 29.0054 30.3951 28.0516 31.0983 27.3483C31.8016 26.6451 32.7554 26.25 33.75 26.25C34.7446 26.25 35.6984 26.6451 36.4017 27.3483C37.1049 28.0516 37.5 29.0054 37.5 30C37.5 30.9946 37.1049 31.9484 36.4017 32.6517C35.6984 33.3549 34.7446 33.75 33.75 33.75C32.7554 33.75 31.8016 33.3549 31.0983 32.6517C30.3951 31.9484 30 30.9946 30 30Z" stroke="#F06900" stroke-width="3.33333" stroke-linejoin="round"/>
</svg>
