<svg width="30" height="30" viewBox="0 0 30 30" fill="none" xmlns="http://www.w3.org/2000/svg">
<g clip-path="url(#clip0_3_7)">
<path d="M29.1469 12.2962C29.322 13.303 29.4092 14.3231 29.4075 15.345C29.4075 19.9087 27.7762 23.7675 24.9375 26.3794H24.9412C22.4587 28.6725 19.0462 30 15 30C11.0217 30 7.20644 28.4196 4.3934 25.6066C1.58035 22.7936 0 18.9782 0 15C0 11.0217 1.58035 7.20644 4.3934 4.39339C7.20644 1.58035 11.0217 -4.01377e-06 15 -4.01377e-06C18.7232 -0.0414676 22.3185 1.35715 25.035 3.90375L20.7525 8.18625C19.2041 6.71109 17.1383 5.90309 15 5.93625C11.0869 5.93625 7.7625 8.57625 6.5775 12.1312C5.9503 13.9942 5.9503 16.0114 6.5775 17.8744H6.58312C7.77375 21.4237 11.0925 24.0637 15.0056 24.0637C17.0269 24.0637 18.7631 23.5462 20.1094 22.6312H20.1037C20.8856 22.1135 21.5544 21.4427 22.0697 20.6593C22.585 19.8758 22.9361 18.9961 23.1019 18.0731H15V12.2981L29.1469 12.2962Z" fill="#808080"/>
</g>
<defs>
<clipPath id="clip0_3_7">
<rect width="30" height="30" fill="white"/>
</clipPath>
</defs>
</svg>
