<svg width="50" height="50" viewBox="0 0 50 50" fill="none" xmlns="http://www.w3.org/2000/svg">
<path d="M28.7056 36.2639L26.3222 39.5639C28.5833 41.5806 31.3944 42.5889 34.7556 42.5889C37.3222 42.5278 39.2778 41.8667 40.6222 40.6028C41.9889 39.3194 42.6694 37.7917 42.6694 36.0194C42.6694 34.2889 42.1917 32.8611 41.2333 31.7417C40.2778 30.6222 38.6667 29.725 36.4056 29.0528C34.5333 28.4833 33.2111 27.9639 32.4333 27.4944C31.6611 27.0056 31.2722 26.4139 31.2722 25.7222C31.2722 25.0917 31.5889 24.5833 32.2194 24.1944C32.8528 23.8056 33.6972 23.6139 34.7556 23.6139C35.5333 23.6139 36.4056 23.7667 37.3833 24.0722C38.3611 24.3361 39.2278 24.7667 39.9806 25.3556L42.1194 22.025C40.2472 20.5167 37.7611 19.7639 34.6639 19.7639C32.4444 19.7639 30.6222 20.3333 29.1944 21.475C27.7278 22.6139 26.9944 24.0306 26.9944 25.7222C27.0167 27.5139 27.6056 28.9111 28.7667 29.9083C29.95 30.9083 31.6278 31.7222 33.8083 32.3528C35.6222 32.9222 36.8556 33.4917 37.5056 34.0639C37.8058 34.3199 38.0462 34.6386 38.2099 34.9976C38.3736 35.3566 38.4565 35.7471 38.4528 36.1417C38.468 36.5029 38.3889 36.8619 38.2233 37.1834C38.0577 37.5048 37.8113 37.7776 37.5083 37.975C36.8556 38.4222 35.9167 38.6472 34.6944 38.6472C32.7 38.6667 30.7028 37.8722 28.7056 36.2639ZM13.3444 38.0361C12.6736 37.6135 12.0922 37.0633 11.6333 36.4167L8.76111 38.7694C9.61667 40.2139 10.6778 41.225 11.9389 41.7944C13.1194 42.3222 14.475 42.5889 16.0028 42.5889C16.8361 42.5889 17.7028 42.4556 18.6 42.1917C19.5094 41.9202 20.3523 41.4624 21.075 40.8472C22.4 39.7889 23.0917 38.0556 23.1528 35.6528V20.1306H19.0278V34.8583C19.0278 36.2639 18.7111 37.2528 18.0833 37.8222C17.45 38.3722 16.6556 38.6472 15.6972 38.6472C14.7806 38.6472 13.9972 38.4444 13.3444 38.0361ZM0 8.33333C0 6.1232 0.877974 4.00358 2.44078 2.44078C4.00358 0.877974 6.1232 0 8.33333 0H41.6667C43.8768 0 45.9964 0.877974 47.5592 2.44078C49.122 4.00358 50 6.1232 50 8.33333V41.6667C50 43.8768 49.122 45.9964 47.5592 47.5592C45.9964 49.122 43.8768 50 41.6667 50H8.33333C6.1232 50 4.00358 49.122 2.44078 47.5592C0.877974 45.9964 0 43.8768 0 41.6667V8.33333ZM8.33333 5.55556C7.59662 5.55556 6.89008 5.84821 6.36915 6.36915C5.84821 6.89008 5.55556 7.59662 5.55556 8.33333V41.6667C5.55556 42.4034 5.84821 43.1099 6.36915 43.6309C6.89008 44.1518 7.59662 44.4444 8.33333 44.4444H41.6667C42.4034 44.4444 43.1099 44.1518 43.6309 43.6309C44.1518 43.1099 44.4444 42.4034 44.4444 41.6667V8.33333C44.4444 7.59662 44.1518 6.89008 43.6309 6.36915C43.1099 5.84821 42.4034 5.55556 41.6667 5.55556H8.33333Z" fill="#F06900"/>
</svg>
