<svg width="60" height="60" viewBox="0 0 60 60" fill="none" xmlns="http://www.w3.org/2000/svg">
<path d="M30.0025 33.75C29.0079 33.75 28.0541 33.3549 27.3509 32.6516C26.6476 31.9484 26.2525 30.9945 26.2525 30C26.2525 29.0054 26.6476 28.0516 27.3509 27.3483C28.0541 26.6451 29.0079 26.25 30.0025 26.25C30.9971 26.25 31.9509 26.6451 32.6542 27.3483C33.3574 28.0516 33.7525 29.0054 33.7525 30C33.7525 30.9945 33.3574 31.9484 32.6542 32.6516C31.9509 33.3549 30.9971 33.75 30.0025 33.75ZM28.6825 41.235C29.12 41.7625 29.5575 42.27 30.0025 42.7575C30.445 42.27 30.885 41.7625 31.3225 41.235C30.4426 41.2536 29.5624 41.2536 28.6825 41.235ZM23.695 40.9225C21.7752 40.7235 19.8681 40.4172 17.9825 40.005C17.8006 40.8436 17.6588 41.6904 17.5575 42.5425C17.0825 46.5 17.745 48.905 18.7525 49.485C19.76 50.0675 22.1725 49.4375 25.365 47.05C26.0225 46.5575 26.685 46.01 27.35 45.4125C26.0487 43.9853 24.8284 42.4863 23.695 40.9225ZM42.0225 40.005C40.1369 40.4172 38.2298 40.7235 36.31 40.9225C35.1766 42.4863 33.9563 43.9853 32.655 45.4125C33.32 46.0125 33.9825 46.5575 34.64 47.05C37.8325 49.4375 40.245 50.0675 41.2525 49.485C42.26 48.905 42.92 46.5 42.45 42.5425C42.3467 41.6907 42.2024 40.844 42.0225 40.005ZM45.65 39.035C47.0925 45.6325 46.335 50.885 43.13 52.735C39.925 54.585 34.9975 52.615 30.005 48.0675C25.0125 52.615 20.085 54.5825 16.88 52.7325C13.675 50.8825 12.9175 45.6325 14.3575 39.0325C7.9225 36.9825 3.755 33.7 3.755 30C3.755 26.3 7.9225 23.0175 14.3575 20.9675C12.9175 14.3675 13.675 9.11748 16.88 7.26748C20.085 5.41748 25.0125 7.38498 30.005 11.9325C34.9975 7.38498 39.925 5.41748 43.13 7.26748C46.335 9.11748 47.0925 14.3675 45.6525 20.9675C52.0825 23.0175 56.25 26.3 56.25 30C56.25 33.7 52.0825 36.985 45.65 39.035ZM27.3475 14.5875C26.685 13.99 26.0225 13.4425 25.365 12.95C22.1725 10.5625 19.76 9.93248 18.7525 10.515C17.745 11.095 17.085 13.5 17.555 17.46C17.655 18.275 17.795 19.1225 17.98 19.9975C19.8663 19.5843 21.7743 19.2772 23.695 19.0775C24.8825 17.445 26.105 15.9425 27.3475 14.5875ZM36.3125 19.0775C38.2324 19.277 40.1395 19.5842 42.025 19.9975C42.2125 19.1225 42.355 18.2725 42.45 17.46C42.925 13.5 42.2625 11.095 41.255 10.515C40.2475 9.93248 37.835 10.5625 34.6425 12.95C33.985 13.4425 33.3225 13.99 32.6575 14.5875C33.9 15.9425 35.125 17.445 36.3125 19.0775ZM31.325 18.765C30.8875 18.24 30.4475 17.73 30.005 17.2425C29.5625 17.73 29.1225 18.2375 28.685 18.765C29.5649 18.7463 30.4451 18.7463 31.325 18.765ZM20.935 36.76C20.4789 36.0077 20.0388 35.2459 19.615 34.475C19.3775 35.1175 19.1575 35.75 18.9575 36.38C19.6 36.5175 20.2625 36.645 20.935 36.76ZM25.7625 37.345C28.5853 37.5545 31.4197 37.5545 34.2425 37.345C35.835 35.0046 37.2522 32.5495 38.4825 30C37.253 27.45 35.8358 24.9949 34.2425 22.655C31.4197 22.4453 28.5853 22.4453 25.7625 22.655C24.1696 24.9952 22.7524 27.4502 21.5225 30C22.7525 32.5497 24.1697 35.0047 25.7625 37.345ZM40.3925 25.525C40.63 24.8825 40.85 24.25 41.05 23.6225C40.3946 23.4803 39.7361 23.3527 39.075 23.24C39.5301 23.9923 39.9694 24.7542 40.3925 25.525ZM15.3275 24.5925C14.4775 24.8675 13.6725 25.1675 12.9175 25.4925C9.255 27.0625 7.5025 28.8375 7.5025 30C7.5025 31.1625 9.2525 32.9375 12.9175 34.5075C13.6725 34.8325 14.4775 35.1325 15.3275 35.4075C15.8825 33.6575 16.57 31.8425 17.39 30C16.6021 28.2374 15.9135 26.4321 15.3275 24.5925ZM18.9525 23.6225C19.155 24.2475 19.375 24.8825 19.6125 25.5225C20.0364 24.7524 20.4765 23.9914 20.9325 23.24C20.2575 23.355 19.595 23.4825 18.9525 23.6225ZM44.68 35.4075C45.53 35.1325 46.335 34.8325 47.09 34.5075C50.75 32.9375 52.5 31.1625 52.5 30C52.5 28.8375 50.75 27.0625 47.085 25.4925C46.33 25.1675 45.5225 24.8675 44.6725 24.5925C44.1225 26.3425 43.4325 28.1575 42.6125 30C43.4325 31.8425 44.12 33.6575 44.675 35.4075M41.05 36.38C40.8433 35.7404 40.6233 35.1053 40.39 34.475C39.9661 35.2458 39.526 36.0077 39.07 36.76C39.745 36.645 40.4075 36.5175 41.05 36.38Z" fill="#F06900"/>
</svg>
