<svg width="30" height="30" viewBox="0 0 30 30" fill="none" xmlns="http://www.w3.org/2000/svg">
<g clip-path="url(#clip0_3_14)">
<path fill-rule="evenodd" clip-rule="evenodd" d="M3.5341 0.958644C3.86218 0.631061 4.25613 0.376941 4.68984 0.213126C5.12356 0.0493102 5.58714 -0.0204604 6.04986 0.00843747C6.51258 0.0373354 6.96388 0.164242 7.37384 0.380747C7.78381 0.597252 8.14308 0.898412 8.42785 1.26427L11.7935 5.58802C12.4104 6.38114 12.6279 7.41427 12.3841 8.38927L11.3585 12.4955C11.3058 12.7082 11.3089 12.9309 11.3673 13.1421C11.4258 13.3533 11.5377 13.5458 11.6922 13.7011L16.2991 18.308C16.4546 18.4629 16.6475 18.575 16.859 18.6334C17.0706 18.6919 17.2936 18.6948 17.5066 18.6418L21.611 17.6161C22.0922 17.4965 22.5942 17.4875 23.0794 17.5898C23.5646 17.6921 24.0203 17.9031 24.4122 18.2068L28.736 21.5705C30.2904 22.7799 30.4329 25.0768 29.0416 26.4661L27.1029 28.4049C25.7154 29.7924 23.6416 30.4018 21.7085 29.7211C16.7597 27.9822 12.267 25.1494 8.56472 21.4336C4.84917 17.7319 2.01638 13.2398 0.277223 8.29177C-0.401527 6.36052 0.207848 4.28489 1.59535 2.89739L3.5341 0.958644Z" fill="#808080"/>
</g>
<defs>
<clipPath id="clip0_3_14">
<rect width="30" height="30" fill="white"/>
</clipPath>
</defs>
</svg>
