<svg width="60" height="60" viewBox="0 0 60 60" fill="none" xmlns="http://www.w3.org/2000/svg">
<path d="M37.5 43.75C38.3 44.55 39.385 45 40.5175 45H41.875C43.6 45 45 43.6 45 41.875V41.25C45 40.2554 44.6049 39.3016 43.9016 38.5983C43.1984 37.8951 42.2446 37.5 41.25 37.5C40.2554 37.5 39.3016 37.1049 38.5983 36.4017C37.8951 35.6984 37.5 34.7446 37.5 33.75V33.125C37.5 31.4 38.9 30 40.625 30H41.9825C43.115 30 44.2 30.45 45 31.25M22.5 30H32.5M27.5 30V45" stroke="#F06900" stroke-width="3.33333" stroke-linecap="round" stroke-linejoin="round"/>
<path d="M52.5 47.5V12.5C52.5 11.1739 51.9732 9.90215 51.0355 8.96447C50.0979 8.02678 48.8261 7.5 47.5 7.5H12.5C11.1739 7.5 9.90215 8.02678 8.96447 8.96447C8.02678 9.90215 7.5 11.1739 7.5 12.5V47.5C7.5 48.8261 8.02678 50.0979 8.96447 51.0355C9.90215 51.9732 11.1739 52.5 12.5 52.5H47.5C48.8261 52.5 50.0979 51.9732 51.0355 51.0355C51.9732 50.0979 52.5 48.8261 52.5 47.5Z" stroke="#F06900" stroke-width="3.33333" stroke-linecap="round" stroke-linejoin="round"/>
</svg>
